<?xml version="1.0" encoding="utf-8"?>
<!-- Generator: Adobe Illustrator 16.0.0, SVG Export Plug-In . SVG Version: 6.00 Build 0)  -->
<!DOCTYPE svg PUBLIC "-//W3C//DTD SVG 1.1//EN" "http://www.w3.org/Graphics/SVG/1.1/DTD/svg11.dtd">
<svg version="1.1" id="图层_1" xmlns="http://www.w3.org/2000/svg" xmlns:xlink="http://www.w3.org/1999/xlink" x="0px" y="0px"
	 width="892.914px" height="147.401px" viewBox="0 0 892.914 147.401" enable-background="new 0 0 892.914 147.401"
	 xml:space="preserve">
<g>
	<g>
		<g>
			<path fill="#FFE200" d="M191.494,17.665V6.033h7.252v11.631h11.9v7.074h-11.9v11.933h-7.252V24.739h-11.869v-7.074H191.494z"/>
		</g>
	</g>
	<g>
		<g>
			<polygon fill="#FFE200" points="49.586,140.314 10.52,140.314 36.612,17.679 109.724,127.392 133.731,90.65 135.908,100.231 
				109.796,140.198 40.033,35.491 19.242,133.253 43.924,133.253 53.052,92.283 58.502,99.836 			"/>
		</g>
	</g>
	<g>
		<g>
			<polygon fill="#FFE200" points="93.564,140.314 48.237,73.85 36.55,128.62 29.324,128.62 44.775,56.245 102.103,140.314 			"/>
		</g>
	</g>
	<g>
		<g>
			<polygon fill="#FFE200" points="151.255,140.314 137.624,72.195 109.536,115.039 44.671,17.679 53.128,17.679 109.487,102.237 
				141.166,53.915 158.446,140.314 			"/>
		</g>
	</g>
	<g>
		<g>
			<polygon fill="#FFE200" points="189.192,140.314 167.116,140.314 148.812,46.16 154.296,37.773 172.933,133.253 180.739,133.253 
				161.1,24.739 152.422,24.739 107.313,87.797 103.041,81.625 148.779,17.679 166.997,17.679 			"/>
		</g>
	</g>
	<g>
		<polygon fill="#FFE200" points="236.34,17.679 225.448,17.679 225.448,140.314 282.457,140.314 282.457,130.018 236.34,130.018 		
			"/>
	</g>
	<g>
		<path fill="#FFE200" d="M361.666,72.86c-8.058-11.043-18.553-16.564-31.482-16.564c-11.24,0-20.889,4.104-28.945,12.312
			s-12.085,18.035-12.085,29.473c0,11.543,4.003,21.467,12.011,29.772c8.008,8.309,17.58,12.461,28.721,12.461
			c12.135,0,22.728-5.42,31.781-16.266v13.58h9.996V58.385h-9.996V72.86z M353.012,121.659c-6.168,6.171-13.529,9.253-22.083,9.253
			c-8.653,0-16.062-3.209-22.231-9.626c-6.166-6.416-9.249-14.051-9.249-22.907c0-8.655,3.033-16.191,9.101-22.609
			c6.067-6.417,13.525-9.625,22.38-9.625c8.753,0,16.163,3.11,22.231,9.327c6.066,6.22,9.102,13.855,9.102,22.907
			C362.262,107.732,359.177,115.493,353.012,121.659z"/>
	</g>
	<g>
		<path fill="#FFE200" d="M463.07,87.82c0.713,2.259,1.186,4.611,1.398,7.061h10.3c-0.174-2.433-0.523-4.788-1.063-7.061H463.07z"/>
	</g>
	<g>
		<path fill="#FFE200" d="M455.432,120.765c-6.117,6.468-13.553,9.7-22.305,9.7c-8.754,0-16.165-3.184-22.23-9.552
			c-6.069-6.366-9.102-14.176-9.102-23.429c0-9.153,3.008-16.763,9.024-22.833c6.021-6.067,13.503-9.104,22.458-9.104
			c8.951,0,16.411,3.235,22.379,9.7c1.616,1.752,3.006,3.592,4.184,5.51h11.479c-1.959-4.397-4.713-8.45-8.279-12.15
			c-7.904-8.208-17.531-12.312-28.867-12.312c-12.533,0-23.126,5.223-31.779,15.669V17.679h-9.998v119.948h9.998v-14.624
			c8.453,11.542,18.946,17.311,31.48,17.311c11.24,0,20.888-4.126,28.945-12.386c3.555-3.645,6.324-7.601,8.311-11.867h-11.926
			C458.111,117.688,456.858,119.257,455.432,120.765z"/>
	</g>
	<g>
		<path fill="#FFE200" d="M462.78,109.001h10.845c0.57-2.277,0.948-4.632,1.134-7.061h-10.372
			C464.115,104.387,463.582,106.743,462.78,109.001z"/>
	</g>
	<g>
		<g>
			<path fill="#FFE200" d="M509.325,88.39l3.263-1.712c0.855,1.213,2.051,2.997,3.584,5.351h20.279v3.104h-43.979v20.016
				c-0.178,10.345-2.123,18.302-5.832,23.866c-0.821-1.141-1.784-2.407-2.89-3.8c3.354-5.386,5.029-12.146,5.029-20.281V92.029
				h22.953C510.805,90.637,510.003,89.424,509.325,88.39z M520.988,131.094c2.032-0.071,3.853-0.161,5.457-0.267
				c-0.357-0.357-0.713-0.715-1.07-1.071l1.818-1.604c1.641,1.391,3.141,2.854,4.495,4.388l-1.981,1.659
				c-0.391-0.464-0.801-0.91-1.229-1.338c-2.318,0.178-5.636,0.445-9.952,0.802l-1.069-2.354c1.105-0.999,2.281-2.372,3.531-4.12
				h-5.404v5.619c0,1.89,0.855,2.836,2.568,2.836h12.093c1.817,0,2.799-0.803,2.94-2.409c0.109-0.678,0.232-2.639,0.374-5.886
				c1.072,0.464,2.212,0.945,3.425,1.444c-0.25,2.855-0.481,4.816-0.695,5.887c-0.426,2.711-2.408,4.066-5.938,4.066h-13.322
				c-3.138,0-4.708-1.783-4.708-5.351v-5.191c-2.995,5.208-9.076,9.08-18.244,11.613c-0.393-0.75-1.123-1.892-2.194-3.425
				c8.634-1.999,14.34-5.064,17.121-9.204h-8.72v1.604h-3.211v-16.91h11.931c0.642-1.213,1.267-2.443,1.873-3.693l3.317,1.445
				c-0.535,0.785-1.053,1.534-1.553,2.248h17.549v15.306h-6.045C523.039,128.616,521.987,129.917,520.988,131.094z M492.899,108.458
				c3.495-1.605,6.33-3.674,8.507-6.207h-7.223v-2.676h8.293V96.15h2.997v3.425h7.489v2.676h-7.489v2.248l1.229-1.339
				c1.89,1.25,3.496,2.374,4.816,3.372l-1.712,2.033c-1.678-1.391-3.121-2.444-4.333-3.157v4.977h-2.997v-5.726
				c-2.213,2.604-4.637,4.674-7.277,6.208C494.451,110.011,493.684,109.208,492.899,108.458z M500.283,118.199h11.342
				c0.107-1.107,0.177-2.283,0.215-3.533h-11.557V118.199z M511.303,120.874h-11.02v3.531h10.058
				C510.732,123.336,511.055,122.157,511.303,120.874z M535.863,107.601c-0.752,0.751-1.5,1.678-2.249,2.784
				c-3.245-1.605-5.902-3.728-7.972-6.369v6.369h-2.996v-6.369c-1.998,2.427-4.334,4.425-7.008,5.995
				c-0.714-0.857-1.518-1.641-2.409-2.355c3.14-1.32,5.813-3.122,8.026-5.405h-6.313v-2.676h7.703V96.15h2.996v3.425h8.506v2.676
				h-7.276C529.191,104.677,532.187,106.46,535.863,107.601z M526.98,124.405v-3.531h-12.307c-0.178,1.321-0.427,2.497-0.748,3.531
				H526.98z M526.98,114.666h-11.825c-0.036,1.25-0.088,2.426-0.16,3.533h11.985V114.666z"/>
			<path fill="#FFE200" d="M493.882,140.266l-0.144-0.272c-0.385-0.735-1.112-1.873-2.166-3.384l-0.322-0.461l0.547-0.126
				c8.075-1.87,13.609-4.711,16.467-8.453h-7.602v1.604h-3.969v-17.671h12.082c0.49-0.932,0.976-1.886,1.447-2.843l-0.37,0.438
				l-0.29-0.242c-1.396-1.159-2.641-2.087-3.709-2.77v4.678h-3.758v-5.096c-2.053,2.274-4.306,4.131-6.705,5.524l-0.27,0.159
				l-0.207-0.236c-0.668-0.763-1.361-1.494-2.064-2.176v6.208c-0.178,10.377-2.161,18.477-5.893,24.077l-0.306,0.457l-0.319-0.445
				c-0.813-1.127-1.779-2.4-2.879-3.786l-0.167-0.209l0.144-0.227c3.297-5.301,4.97-12.057,4.97-20.082V91.649h22.623
				c-0.764-1.146-1.436-2.164-2.016-3.05l-0.229-0.351l3.931-2.062l0.191,0.273c0.83,1.177,2.001,2.922,3.479,5.189h20.451v3.864
				h-43.98v12.549c3.088-1.433,5.676-3.258,7.707-5.431h-6.754v-3.437h8.293V95.77h3.758v3.425h7.488v3.437h-7.488v0.891
				l0.789-0.858l0.269,0.179c1.894,1.251,3.521,2.39,4.835,3.386l0.32,0.241l-1.123,1.336l3.621,1.576
				c-0.489-0.506-1.016-0.984-1.57-1.429l-0.5-0.4l0.588-0.248c2.775-1.167,5.21-2.738,7.25-4.674h-5.77v-3.437h7.703V95.77h3.757
				v3.425h8.507v3.437h-6.734c2.17,2.047,4.918,3.596,8.18,4.606l0.601,0.188l-0.446,0.445c-0.727,0.728-1.467,1.647-2.199,2.728
				l-0.188,0.274l-0.296-0.147c-2.938-1.454-5.431-3.351-7.424-5.651v5.69h-3.757v-5.72c-1.869,2.104-4.029,3.881-6.436,5.293
				l-0.277,0.162l-0.207-0.247c-0.203-0.242-0.41-0.479-0.63-0.711l-0.21,0.307c-0.387,0.57-0.767,1.122-1.135,1.654h17.199v16.066
				h-6.24c-0.865,1.112-1.705,2.157-2.501,3.113c1.341-0.05,2.597-0.112,3.753-0.182l-0.762-0.763l2.369-2.089l0.252,0.213
				c1.645,1.396,3.171,2.885,4.531,4.426l0.26,0.292l-2.57,2.153l-0.243-0.289c-0.346-0.408-0.712-0.808-1.087-1.19
				c-2.309,0.178-5.566,0.44-9.775,0.788l-0.265,0.023l-1.296-2.851l0.206-0.187c0.95-0.86,1.97-2.021,3.038-3.457h-4.275v5.238
				c0,1.675,0.693,2.455,2.188,2.455h12.093c1.622,0,2.437-0.655,2.563-2.062c0.106-0.683,0.23-2.648,0.374-5.868l0.024-0.553
				l0.505,0.22c1.068,0.463,2.207,0.944,3.418,1.442l0.258,0.105l-0.022,0.278c-0.257,2.898-0.485,4.836-0.702,5.928
				c-0.455,2.896-2.582,4.373-6.312,4.373h-13.322c-3.376,0-5.087-1.929-5.087-5.731v-3.876c-3.242,4.716-9.209,8.3-17.764,10.664
				L493.882,140.266z M492.512,136.635c0.792,1.148,1.378,2.065,1.754,2.735c8.863-2.496,14.826-6.315,17.725-11.354l0.711-1.234
				v6.614c0,3.345,1.416,4.97,4.327,4.97h13.322c3.345,0,5.165-1.225,5.563-3.745c0.205-1.029,0.429-2.902,0.667-5.582
				c-0.93-0.385-1.819-0.76-2.665-1.122c-0.134,2.96-0.25,4.722-0.354,5.377c-0.107,1.23-0.774,2.729-3.316,2.729h-12.093
				c-1.344,0-2.947-0.559-2.947-3.216v-6h6.521l-0.429,0.601c-1.184,1.654-2.318,2.996-3.381,3.992l0.846,1.861
				c4.188-0.346,7.416-0.606,9.686-0.782l0.176-0.012l0.123,0.123c0.346,0.345,0.683,0.706,1.007,1.074l1.392-1.166
				c-1.201-1.333-2.527-2.623-3.947-3.845l-1.268,1.118l1.377,1.378l-0.836,0.056c-1.618,0.108-3.458,0.197-5.471,0.268l-0.858,0.03
				l0.556-0.657c0.984-1.16,2.044-2.469,3.146-3.891l0.115-0.148h5.85v-14.545h-17.896l0.418-0.598
				c0.416-0.596,0.848-1.217,1.289-1.865l-2.561-1.116c-0.558,1.139-1.136,2.273-1.72,3.378l-0.106,0.201h-11.78v16.15h2.451v-1.605
				h9.813l-0.397,0.593C506.556,131.514,500.901,134.619,492.512,136.635z M484.214,135.188c0.896,1.134,1.704,2.193,2.409,3.155
				c3.457-5.46,5.297-13.262,5.469-23.203V94.752h43.979V92.41h-20.104l-0.114-0.172c-1.413-2.174-2.553-3.876-3.384-5.067
				l-2.598,1.362c0.628,0.954,1.354,2.049,2.177,3.286l0.395,0.591h-23.283v22.523C489.159,122.988,487.495,129.8,484.214,135.188z
				 M493.559,108.568c0.582,0.574,1.158,1.182,1.719,1.811c2.486-1.489,4.811-3.495,6.909-5.967l0.67-0.788v6.38h2.235v-8.133h7.49
				v-1.916h-7.49v-3.425h-2.235v3.425h-8.293v1.916h7.669l-0.539,0.627C499.6,104.939,496.863,106.979,493.559,108.568z
				 M523.027,110.004h2.236v-7.089l0.678,0.867c1.962,2.503,4.499,4.559,7.549,6.114c0.555-0.8,1.119-1.51,1.678-2.119
				c-3.459-1.161-6.341-2.93-8.57-5.264l-0.613-0.642h7.785v-1.916h-8.506v-3.425h-2.236v3.425h-7.705v1.916h6.83l-0.623,0.643
				c-2.102,2.171-4.65,3.934-7.58,5.244c0.638,0.548,1.23,1.138,1.77,1.762c2.512-1.517,4.743-3.448,6.635-5.746l0.674-0.817
				V110.004z M505.527,105l0.137,0.081c1.154,0.679,2.531,1.671,4.094,2.952l1.211-1.438c-1.18-0.879-2.59-1.866-4.205-2.938
				L505.527,105z M527.359,124.786H513.41l0.153-0.493c0.313-1.008,0.56-2.175,0.733-3.47l0.045-0.329h13.018V124.786z
				 M514.434,124.025H526.6v-2.771h-11.597C514.857,122.258,514.666,123.188,514.434,124.025z M510.606,124.786h-10.703v-4.292
				h11.861l-0.087,0.453c-0.256,1.299-0.582,2.506-0.979,3.59L510.606,124.786z M500.662,124.025h9.412
				c0.299-0.852,0.553-1.781,0.765-2.771h-10.177V124.025z M527.359,118.579h-12.768l0.023-0.404
				c0.072-1.103,0.125-2.286,0.16-3.519l0.012-0.37h12.572V118.579z M515.399,117.819h11.2v-2.772h-11.076
				C515.495,116.006,515.453,116.937,515.399,117.819z M511.97,118.579h-12.066v-4.293h12.327l-0.011,0.391
				c-0.036,1.258-0.108,2.455-0.218,3.559L511.97,118.579z M500.662,117.819h10.617c0.077-0.874,0.133-1.804,0.168-2.772h-10.785
				V117.819z"/>
		</g>
		<g>
			<path fill="#FFE200" d="M543.951,101.394c2.675,1.892,5.813,4.318,9.415,7.278c-1.317,1.499-2.353,2.659-3.103,3.478
				c-4.029-3.603-7.026-6.154-8.988-7.651L543.951,101.394z M549.195,116.752c1.317,0.572,2.727,1.159,4.227,1.767
				c-2.533,7.599-4.744,14.466-6.636,20.603l-4.601-1.552C544.541,131.292,546.876,124.352,549.195,116.752z M546.037,87.534
				c2.854,2.283,5.92,4.888,9.202,7.813c-1.212,1.249-2.265,2.354-3.155,3.318c-3.28-3.247-6.207-5.976-8.775-8.188L546.037,87.534z
				 M582.365,121.034c3.424,4.675,7.117,10.044,11.076,16.108c-1.429,0.82-2.82,1.641-4.174,2.461c-1-1.659-1.979-3.263-2.943-4.815
				c-11.699,0.963-20.865,1.766-27.5,2.408l-1.98-4.656c2.248-0.999,4.442-3.085,6.581-6.261c2.354-3.354,4.54-6.885,6.554-10.596
				h-14.043v-3.853h16.799v-11.345h-14.178v-3.853h14.178v-9.793h4.281v9.793h14.819v3.853h-14.819v11.345h17.334v3.853h-18.994
				c-3.977,6.546-7.863,12.201-11.664,16.964c6.795-0.321,13.59-0.803,20.386-1.445c-1.838-2.872-3.585-5.512-5.243-7.92
				L582.365,121.034z"/>
			<path fill="#FFE200" d="M589.139,140.126l-0.197-0.327c-0.943-1.566-1.891-3.117-2.817-4.614
				c-11.521,0.949-20.691,1.753-27.263,2.388l-0.277,0.028l-2.236-5.257l0.342-0.151c2.172-0.963,4.332-3.025,6.42-6.126
				c2.219-3.158,4.311-6.519,6.229-10.003h-13.782v-4.613h16.8v-10.585h-14.178v-4.612h14.178v-9.794h5.04v9.794h14.819v4.612
				h-14.819v10.585h17.334v4.613H575.57c-3.75,6.157-7.467,11.591-11.06,16.163c6.276-0.309,12.63-0.761,18.91-1.344
				c-1.711-2.664-3.358-5.145-4.898-7.384l-0.226-0.325l4.165-2.65l0.21,0.287c3.414,4.66,7.145,10.085,11.088,16.125l0.219,0.336
				l-0.35,0.201c-1.428,0.82-2.83,1.647-4.165,2.457L589.139,140.126z M586.525,134.39l0.123,0.196
				c0.902,1.456,1.826,2.967,2.747,4.495c1.134-0.683,2.31-1.377,3.505-2.068c-3.771-5.77-7.346-10.969-10.631-15.467l-2.899,1.844
				c1.585,2.31,3.274,4.866,5.029,7.606l0.333,0.525l-0.619,0.059c-6.774,0.639-13.637,1.126-20.402,1.446l-0.838,0.039l0.522-0.656
				c3.771-4.726,7.686-10.421,11.638-16.925l0.109-0.183h18.826v-3.092h-17.334v-12.106h14.82v-3.092h-14.82v-9.794h-3.521v9.794
				h-14.178v3.092h14.178v12.106h-16.798v3.092h14.303l-0.307,0.562c-2.014,3.71-4.227,7.288-6.576,10.633
				c-2.061,3.058-4.212,5.153-6.398,6.231l1.727,4.063c6.6-0.636,15.757-1.438,27.229-2.382L586.525,134.39z M547.035,139.607
				l-5.344-1.802l0.139-0.369c2.338-6.235,4.693-13.231,7-20.794l0.125-0.407l0.39,0.169c1.29,0.558,2.71,1.151,4.218,1.762
				l0.332,0.134l-0.113,0.339c-2.522,7.569-4.754,14.498-6.632,20.595L547.035,139.607z M542.68,137.336l3.858,1.301
				c1.827-5.92,3.982-12.611,6.409-19.899c-1.241-0.506-2.42-0.998-3.514-1.468C547.205,124.545,544.935,131.292,542.68,137.336z
				 M550.291,112.684l-0.28-0.25c-4.009-3.584-7.026-6.152-8.966-7.634l-0.321-0.245l3.165-3.671l0.281,0.199
				c2.664,1.883,5.839,4.337,9.438,7.296l0.306,0.249l-0.262,0.295c-1.346,1.526-2.361,2.667-3.107,3.483L550.291,112.684z
				 M541.826,104.442c1.911,1.486,4.736,3.896,8.409,7.174c0.663-0.73,1.515-1.685,2.585-2.9c-3.333-2.731-6.292-5.022-8.809-6.812
				L541.826,104.442z M552.094,99.212l-0.277-0.276c-3.26-3.226-6.206-5.975-8.755-8.17l-0.299-0.258L546,87.017l0.275,0.221
				c2.85,2.279,5.949,4.914,9.217,7.827l0.297,0.263l-0.275,0.285c-1.209,1.243-2.266,2.356-3.15,3.312L552.094,99.212z
				 M543.854,90.447c2.42,2.1,5.181,4.677,8.218,7.672c0.76-0.817,1.64-1.74,2.617-2.751c-3.043-2.706-5.938-5.165-8.613-7.316
				L543.854,90.447z"/>
		</g>
		<g>
			<path fill="#FFE200" d="M598.695,129.382c4.35-0.589,9.486-1.337,15.407-2.248c1.428-4.727,2.14-10.56,2.14-17.499V92.296h15.062
				c-0.84-1.498-1.632-2.819-2.382-3.96l4.066-1.872c1.018,1.623,2.158,3.567,3.426,5.832h12.625v14.664H645.4v-1.713h-25.52v4.441
				c0,13.771-2.621,23.724-7.865,29.861c-0.748-1.106-1.623-2.212-2.622-3.317c1.319-1.553,2.443-3.39,3.372-5.513
				c-5.475,1.106-9.846,2.016-13.109,2.729L598.695,129.382z M605.007,118.412c1.677-0.071,4.763-0.322,9.257-0.749
				c-0.18,1.498-0.321,2.657-0.43,3.478c-6.99,0.607-11.432,1.053-13.321,1.338l-0.748-3.372c1.819-1.819,4.19-5.467,7.116-10.944
				c-2.729,0.213-5.102,0.419-7.116,0.616l-1.018-3.372c3.423-5.459,6.438-11.596,9.043-18.41l4.173,1.499
				c-2.998,6.386-5.887,11.917-8.667,16.59c1.157,0,2.898-0.027,5.216-0.081c0.945-1.837,1.936-3.844,2.971-6.02l3.85,1.712
				C610.768,108.94,607.326,114.844,605.007,118.412z M645.4,95.722h-25.52v6.101h25.52V95.722z M624.963,139.229h-3.423v-28.522
				h28.302v23.652c0,3.104-1.392,4.655-4.172,4.655c-1.963,0.072-3.514,0.107-4.656,0.107c-0.144-0.999-0.33-1.926-0.562-2.782
				h-2.489v-10.811h-4.867v11.024h-3.264v-11.024h-4.869V139.229z M624.963,122.264h4.869v-8.133h-4.869V122.264z M633.096,122.264
				h4.867v-8.133h-4.867V122.264z M646.256,114.131h-5.029v8.133h5.029V114.131z M644.172,135.644c1.391,0,2.084-0.769,2.084-2.302
				v-7.813h-5.029v10.034C642.138,135.616,643.119,135.644,644.172,135.644z"/>
			<path fill="#FFE200" d="M611.982,140.177l-0.281-0.413c-0.734-1.088-1.607-2.19-2.588-3.276l-0.225-0.247l0.217-0.254
				c1.148-1.351,2.157-2.945,3.008-4.746c-5.23,1.059-9.284,1.904-12.375,2.581l-0.365,0.079l-1.146-4.84l0.416-0.055
				c4.289-0.581,9.388-1.324,15.166-2.211c1.363-4.63,2.055-10.401,2.055-17.16v-9.109l-0.197,0.355
				c-4.293,7.747-7.632,13.499-9.938,17.112c1.766-0.103,4.617-0.342,8.498-0.71l0.47-0.045l-0.056,0.468
				c-0.179,1.5-0.32,2.661-0.43,3.482l-0.039,0.303l-0.303,0.027c-6.953,0.603-11.426,1.053-13.299,1.335l-0.352,0.054l-0.871-3.922
				l0.146-0.148c1.717-1.717,3.978-5.161,6.723-10.241c-2.413,0.192-4.571,0.38-6.414,0.559l-0.314,0.031l-1.155-3.836l0.093-0.146
				c3.395-5.411,6.425-11.583,9.008-18.343l0.135-0.348l4.916,1.766l-0.178,0.378c-2.865,6.108-5.67,11.504-8.344,16.046
				c1.066-0.008,2.488-0.033,4.314-0.074c0.906-1.771,1.869-3.725,2.861-5.809l0.16-0.334l4.564,2.029v-8.601h14.789
				c-0.719-1.262-1.406-2.395-2.047-3.373l-0.242-0.368l4.77-2.199l0.178,0.284c0.98,1.565,2.098,3.467,3.324,5.655h12.785v15.423
				h-4.398v-1.712h-24.761v4.061c0,13.798-2.678,23.929-7.956,30.107L611.982,140.177z M609.896,136.224
				c0.796,0.896,1.516,1.8,2.149,2.698c4.947-6.071,7.456-15.902,7.456-29.233v-4.821h26.28v1.713h2.879V92.677h-12.471
				l-0.107-0.195c-1.189-2.127-2.279-3.987-3.239-5.532l-3.361,1.548c0.678,1.054,1.401,2.267,2.153,3.613l0.316,0.566h-15.33
				v16.959c0,6.944-0.725,12.869-2.154,17.609l-0.07,0.229l-0.236,0.036c-5.692,0.874-10.736,1.612-15,2.192l0.78,3.296
				c3.193-0.694,7.368-1.563,12.749-2.65l0.717-0.146l-0.293,0.671C612.225,132.904,611.145,134.703,609.896,136.224z
				 M600.18,119.227l0.629,2.826c2.029-0.283,6.292-0.707,12.689-1.265c0.088-0.698,0.199-1.599,0.332-2.703
				c-4.236,0.401-7.199,0.639-8.807,0.706l-0.738,0.032l0.404-0.618c2.268-3.492,5.67-9.321,10.11-17.328l-3.135-1.394
				c-0.976,2.044-1.921,3.959-2.815,5.696l-0.102,0.201l-0.229,0.005c-2.359,0.054-4.066,0.082-5.224,0.082h-0.668l0.342-0.575
				c2.707-4.547,5.555-9.989,8.472-16.179l-3.432-1.232c-2.549,6.61-5.524,12.657-8.848,17.981l0.876,2.907
				c1.958-0.187,4.247-0.384,6.812-0.585l0.693-0.054l-0.327,0.612C604.365,113.682,601.998,117.341,600.18,119.227z
				 M625.344,139.609h-4.184v-29.283h29.062v24.033c0,3.295-1.573,5.036-4.552,5.036c-1.946,0.071-3.516,0.107-4.656,0.107h-0.33
				l-0.045-0.327c-0.125-0.868-0.286-1.694-0.479-2.455h-2.576v-10.812h-4.109v11.025h-4.022v-11.025h-4.108V139.609z
				 M621.918,138.848h2.665v-13.7h5.63v11.025h2.504v-11.025h5.628v10.812h2.399l0.074,0.281c0.21,0.773,0.386,1.613,0.522,2.501
				c1.099-0.007,2.547-0.042,4.314-0.105c2.565-0.001,3.806-1.4,3.806-4.277v-23.272h-27.543V138.848z M644.172,136.024
				c-1.049,0-2.048-0.028-2.966-0.082l-0.358-0.021v-10.773h5.789v8.194C646.637,135.557,645.295,136.024,644.172,136.024z
				 M641.608,135.203c0.804,0.04,1.663,0.06,2.563,0.06c1.18,0,1.707-0.592,1.707-1.921v-7.434h-4.271V135.203z M646.637,122.646
				h-5.789v-8.896h5.789V122.646z M641.608,121.885h4.271v-7.374h-4.271V121.885z M638.345,122.646h-5.628v-8.896h5.628V122.646z
				 M633.475,121.885h4.109v-7.374h-4.109V121.885z M630.213,122.646h-5.63v-8.896h5.63V122.646z M625.344,121.885h4.108v-7.374
				h-4.108V121.885z M645.781,102.203h-26.28v-6.861h26.28V102.203z M620.261,101.442h24.761v-5.34h-24.761V101.442z"/>
		</g>
		<g>
			<path fill="#FFE200" d="M655.952,124.672c3.531-5.154,6.241-11.255,8.134-18.302h-7.492v-3.531h8.348v-8.375
				c-2.248,0.32-4.549,0.614-6.902,0.882c-0.287-1.213-0.661-2.444-1.123-3.692c6.063-0.499,12.18-1.463,18.351-2.891l1.178,3.747
				c-2.481,0.5-5.03,0.963-7.652,1.392v8.938h7.437v3.531h-7.437v7.065l2.086-1.821c1.426,1.464,3.515,3.801,6.26,7.011l-3.21,2.623
				c-2.068-2.64-3.78-4.771-5.136-6.396v24.75h-3.851V113.97c-1.893,6.137-4.281,11.256-7.17,15.359
				C657.199,127.795,656.594,126.243,655.952,124.672z M674.838,133.128h15.301v-7.919h-12.145v-3.585h12.145v-7.279H676.71v-3.586
				h31.192v3.586h-13.483v7.279h12.146v3.585h-12.146v7.919h15.302v3.585h-34.883V133.128z M679.117,89.353h26.538v18.356h-4.067
				v-2.195h-18.404v2.195h-4.066V89.353z M701.588,92.992h-18.404v8.884h18.404V92.992z"/>
			<path fill="#FFE200" d="M669.172,139.984h-4.612v-23.617c-1.771,5.159-3.945,9.584-6.478,13.182l-0.416,0.589l-0.25-0.675
				c-0.574-1.539-1.184-3.103-1.815-4.645l-0.077-0.19l0.113-0.169c3.41-4.978,6.086-10.933,7.951-17.707h-7.375v-4.293h8.347
				v-7.556c-2.105,0.295-4.283,0.573-6.479,0.823l-0.334,0.038l-0.078-0.328c-0.28-1.193-0.652-2.419-1.109-3.648l-0.176-0.469
				l0.502-0.042c6.014-0.495,12.168-1.465,18.296-2.881l0.342-0.08l1.411,4.485l-0.416,0.083c-2.363,0.478-4.834,0.928-7.346,1.343
				v8.233h7.438v4.293h-7.438v5.849l1.729-1.508l0.251,0.257c1.426,1.463,3.537,3.828,6.274,7.03l0.254,0.294l-3.811,3.115
				l-0.24-0.306c-1.729-2.208-3.225-4.077-4.457-5.574V139.984z M665.32,139.223h3.092v-33.232h7.438v-2.771h-7.438v-9.64
				l0.318-0.052c2.467-0.404,4.895-0.842,7.223-1.307l-0.944-3.007c-5.88,1.345-11.786,2.279-17.567,2.779
				c0.351,0.988,0.648,1.973,0.888,2.939c2.228-0.257,4.431-0.54,6.559-0.843l0.433-0.063v9.193h-8.347v2.771h7.606l-0.129,0.479
				c-1.873,6.979-4.588,13.118-8.07,18.249c0.514,1.263,1.014,2.535,1.49,3.796c2.672-3.955,4.928-8.88,6.705-14.657l0.744,0.112
				V139.223z M668.639,114.075l0.445,0.534c1.299,1.555,2.945,3.606,4.902,6.1l2.611-2.131c-2.453-2.859-4.379-5.022-5.74-6.438
				L668.639,114.075z M710.101,137.094h-35.642v-4.347h15.301v-7.159h-12.145v-4.347h12.145v-6.517h-13.43v-4.346h31.953v4.346
				h-13.484v6.517h12.146v4.347h-12.146v7.159h15.302V137.094z M675.217,136.333h34.125v-2.825h-15.303v-8.681h12.145v-2.825
				h-12.145v-8.038h13.482v-2.824H677.09v2.824h13.43v8.038h-12.145v2.825h12.145v8.681h-15.303V136.333z M706.035,108.089h-4.826
				v-2.194h-17.645v2.194h-4.825V88.973h27.296V108.089z M701.969,107.33h3.307V89.733h-25.777v17.597h3.309v-2.194h19.162V107.33z
				 M701.969,102.255h-19.162v-9.644h19.162V102.255z M683.564,101.495h17.645v-8.123h-17.645V101.495z"/>
		</g>
		<g>
			<path fill="#FFE200" d="M714.064,135.804c13.163-2.462,21.635-6.368,25.415-11.721h-24.558v-3.958h26.537
				c1.212-3.71,1.766-10.186,1.658-19.426h4.494c0,9.169-0.5,15.644-1.498,19.426h20.278v3.958h-21.774
				c-0.289,0.571-0.627,1.179-1.018,1.821c7.631,3.21,15.104,6.528,22.416,9.953l-2.354,4.067
				c-7.634-3.889-15.178-7.51-22.631-10.865c-4.853,4.746-12.984,8.403-24.396,10.971
				C715.813,138.461,714.957,137.053,714.064,135.804z M715.938,94.545h24.504c-0.891-1.606-2.086-3.479-3.585-5.619l3.907-2.195
				c1.176,1.57,2.604,3.639,4.28,6.208l-2.944,1.606H765v9.577h-4.28v-5.619h-40.503v5.619h-4.279V94.545z M722.519,108.993
				c4.101,1.855,7.954,3.8,11.557,5.834l-2.3,3.692c-3.566-2.177-7.331-4.209-11.291-6.101L722.519,108.993z M727.335,100.805
				c4.136,1.999,7.899,4.015,11.287,6.047l-2.405,3.639c-3.318-2.14-6.975-4.317-10.971-6.528L727.335,100.805z"/>
			<path fill="#FFE200" d="M716.433,140.466l-0.136-0.259c-0.809-1.548-1.664-2.956-2.541-4.181l-0.347-0.486l0.587-0.109
				c12.497-2.338,20.809-6.027,24.724-10.967h-24.179v-4.719h26.64c1.136-3.698,1.66-10.102,1.556-19.042l-0.004-0.385h5.258v0.381
				c0,8.785-0.467,15.188-1.389,19.046h20.17v4.719H744.85c-0.207,0.4-0.441,0.821-0.701,1.26c7.477,3.15,14.886,6.443,22.029,9.791
				l0.373,0.175l-2.742,4.736l-0.318-0.163c-7.51-3.826-15.037-7.442-22.381-10.75c-4.904,4.687-13.107,8.35-24.393,10.89
				L716.433,140.466z M714.713,136.068c0.729,1.064,1.439,2.248,2.121,3.528c11.141-2.537,19.193-6.173,23.932-10.807l0.186-0.182
				l0.236,0.106c7.323,3.297,14.832,6.898,22.325,10.709l1.968-3.396c-7.148-3.341-14.557-6.629-22.029-9.772l-0.406-0.171
				l0.229-0.377c0.388-0.636,0.726-1.24,1.001-1.793l0.105-0.21h21.629v-3.198h-20.39l0.126-0.478
				c0.972-3.681,1.472-10.055,1.486-18.949H743.5c0.089,9.037-0.477,15.483-1.681,19.164l-0.085,0.263h-26.434v3.198h24.912
				l-0.424,0.6C736.023,129.634,727.59,133.591,714.713,136.068z M731.897,119.039l-0.321-0.196
				c-3.537-2.158-7.322-4.204-11.254-6.082l-0.375-0.18l2.418-4.074l0.311,0.14c4.09,1.851,7.988,3.818,11.585,5.849l0.347,0.195
				L731.897,119.039z M721.025,112.255c3.701,1.783,7.273,3.713,10.625,5.745l1.893-3.036c-3.391-1.9-7.044-3.742-10.871-5.483
				L721.025,112.255z M736.324,111.015l-0.315-0.203c-3.289-2.124-6.972-4.316-10.946-6.516l-0.359-0.199l2.498-3.778l0.299,0.145
				c4.131,1.995,7.938,4.035,11.318,6.063l0.34,0.205L736.324,111.015z M725.791,103.831c3.724,2.071,7.19,4.134,10.315,6.139
				l1.979-2.995c-3.191-1.899-6.76-3.81-10.619-5.682L725.791,103.831z M765.38,104.503h-5.042v-5.62h-39.74v5.62h-5.039v-10.34
				h24.231c-0.847-1.464-1.935-3.149-3.245-5.02l-0.24-0.343l4.564-2.564l0.198,0.267c1.179,1.572,2.623,3.667,4.294,6.228
				l0.225,0.345l-1.995,1.088h21.789V104.503z M761.1,103.744h3.52v-8.819H742.1l-0.182-0.713l2.58-1.409
				c-1.474-2.251-2.764-4.123-3.839-5.576l-3.251,1.825c1.386,1.998,2.518,3.782,3.367,5.309l0.313,0.564h-24.77v8.819h3.519v-5.62
				H761.1V103.744z"/>
		</g>
		<g>
			<path fill="#FFE200" d="M770.948,123.55c4.138-0.821,8.686-1.821,13.644-2.999c-0.035,1.428-0.018,2.695,0.053,3.8
				c-4.066,0.856-8.363,1.909-12.895,3.157L770.948,123.55z M778.867,97.167l-1.23,14.717h5.404l1.391-18.035h-12.145v-3.639h16.21
				l-1.657,21.674h3.369c-0.25,7.528-0.48,13.718-0.694,18.569c-0.107,5.423-2.463,8.134-7.063,8.134
				c-1.926,0-4.19-0.053-6.795-0.161c-0.178-1.318-0.41-2.729-0.695-4.227c2.568,0.321,4.851,0.481,6.848,0.481
				c2.498,0,3.816-1.517,3.96-4.548c0.216-3.924,0.392-8.793,0.534-14.61h-12.839l1.711-18.355H778.867z M810.059,87.213
				l-1.018,1.713c4.316,7.67,9.666,13.254,16.052,16.75c-1.14,1.427-2.087,2.676-2.835,3.746
				c-6.277-4.638-11.396-10.222-15.355-16.75c-3.639,6.458-8.722,12.254-15.248,17.392c-0.644-0.928-1.533-2.051-2.676-3.372
				c7.098-4.923,12.537-11.416,16.318-19.479H810.059z M790.639,133.289h19.313c2.569-6.35,4.852-12.986,6.85-19.907l4.066,1.284
				c-2.105,6.386-4.334,12.595-6.689,18.623h9.416v3.692h-32.955V133.289z M793.365,116.164l3.746-1.177
				c1.747,5.067,3.211,9.579,4.387,13.539l-3.959,1.338C796.363,125.297,794.972,120.731,793.365,116.164z M796.094,106.907h22.045
				v3.692h-22.045V106.907z M802.567,113.756l3.8-1.017c1.496,5.351,2.729,10.024,3.691,14.021l-3.906,1.124
				C805.118,122.961,803.923,118.251,802.567,113.756z"/>
			<path fill="#FFE200" d="M782.451,138.966c-1.922,0-4.213-0.054-6.811-0.16l-0.318-0.014l-0.041-0.315
				c-0.176-1.305-0.41-2.72-0.691-4.208l-0.099-0.513l0.517,0.065c2.547,0.318,4.834,0.478,6.801,0.478
				c2.277,0,3.447-1.37,3.58-4.187c0.207-3.799,0.384-8.578,0.525-14.211h-12.867l1.782-19.115h4.451l-1.231,14.717h4.641
				l1.33-17.274h-12.113v-4.4h17.002l-1.66,21.674h3.354l-0.012,0.393c-0.251,7.525-0.484,13.774-0.696,18.573
				C789.783,136.105,787.279,138.966,782.451,138.966z M775.99,138.06c2.455,0.097,4.629,0.146,6.461,0.146
				c4.395,0,6.578-2.539,6.682-7.762c0.21-4.721,0.44-10.834,0.682-18.182h-3.387l1.66-21.673h-15.422v2.878h12.175l-1.45,18.794
				h-6.168l1.23-14.716h-2.932l-1.641,17.595h12.813l-0.01,0.389c-0.144,5.81-0.323,10.729-0.535,14.621
				c-0.191,4.057-2.465,4.909-4.34,4.909c-1.862,0-4.006-0.141-6.379-0.422C775.652,135.835,775.839,136.982,775.99,138.06z
				 M823.975,137.362h-33.716v-4.454h19.437c2.512-6.237,4.779-12.84,6.74-19.63l0.107-0.375l4.805,1.516l-0.12,0.366
				c-2.041,6.188-4.224,12.283-6.494,18.124h9.241V137.362z M791.018,136.602h32.197v-2.933h-9.594l0.203-0.518
				c2.293-5.873,4.498-12.006,6.561-18.239l-3.328-1.05c-1.967,6.77-4.24,13.352-6.754,19.569l-0.094,0.238h-19.191V136.602z
				 M797.271,130.356l-0.1-0.396c-1.169-4.53-2.568-9.129-4.164-13.669l-0.13-0.371l4.472-1.406l0.121,0.35
				c1.744,5.055,3.221,9.616,4.391,13.556l0.105,0.351L797.271,130.356z M793.854,116.41c1.506,4.307,2.831,8.665,3.953,12.964
				l3.223-1.09c-1.125-3.756-2.521-8.066-4.156-12.823L793.854,116.41z M805.865,128.364l-0.084-0.401
				c-1.027-4.887-2.23-9.63-3.578-14.097l-0.111-0.375l4.54-1.215l0.101,0.361c1.492,5.328,2.736,10.05,3.695,14.033l0.087,0.354
				L805.865,128.364z M803.045,114.022c1.271,4.255,2.411,8.752,3.396,13.384l3.163-0.911c-0.924-3.809-2.1-8.276-3.501-13.291
				L803.045,114.022z M771.46,127.984l-0.959-4.733l0.373-0.074c4.123-0.818,8.71-1.825,13.629-2.994l0.481-0.114l-0.012,0.492
				c-0.037,1.41-0.019,2.678,0.052,3.767l0.021,0.328l-0.32,0.067c-4.039,0.851-8.37,1.912-12.873,3.153L771.46,127.984z
				 M771.396,123.849l0.647,3.186c4.259-1.166,8.358-2.169,12.202-2.987c-0.049-0.902-0.063-1.912-0.044-3.012
				C779.6,122.124,775.297,123.069,771.396,123.849z M818.518,110.979h-22.803v-3.855c-1.217,1.109-2.493,2.188-3.826,3.237
				l-0.318,0.25l-0.229-0.333c-0.632-0.913-1.523-2.037-2.649-3.339l-0.276-0.32l0.347-0.24c7.01-4.861,12.457-11.365,16.191-19.329
				l0.104-0.218h5.67l-1.246,2.098c4.244,7.475,9.557,12.996,15.794,16.411l0.398,0.217l-0.284,0.354
				c-1.131,1.415-2.079,2.667-2.82,3.727l-0.223,0.319l-0.314-0.231c-1.211-0.896-2.383-1.83-3.514-2.801V110.979z M796.475,110.219
				h21.284v-2.933h-21.284V110.219z M789.539,106.763c0.89,1.04,1.625,1.963,2.193,2.754c6.311-5.025,11.301-10.753,14.84-17.032
				l0.318-0.565l0.335,0.555c3.851,6.348,8.878,11.867,14.944,16.41c0.649-0.909,1.438-1.947,2.347-3.095
				c-6.248-3.53-11.563-9.138-15.808-16.677l-0.107-0.192l0.79-1.328h-3.854C801.812,95.45,796.43,101.896,789.539,106.763z
				 M796.363,106.525h21.689c-4.367-3.829-8.102-8.221-11.139-13.108C804.186,98.121,800.65,102.511,796.363,106.525z"/>
		</g>
		<g>
			<path fill="#FFE200" d="M829.277,133.663h24.129v-6.26h-19.207v-3.693h19.207v-6.182c-3.765,0.161-7.401,0.331-10.916,0.509
				c-1.784,0.106-3.565,0.34-5.348,0.695l-1.82-4.441c1.355-0.535,2.799-1.302,4.334-2.302c2.516-1.729,4.824-3.478,6.93-5.244
				h-9.713v-3.692h37.773v3.692H852.87c-2.853,2.319-6.134,4.78-9.843,7.386c7.74-0.269,15.461-0.554,23.167-0.856
				c-1.144-1.036-2.339-2.087-3.585-3.157l2.941-2.677c4.494,3.532,8.399,6.851,11.717,9.954l-3.477,3.264
				c-1.123-1.194-2.328-2.424-3.613-3.691c-4.279,0.106-8.426,0.241-12.438,0.401v6.341h19.261v3.693H857.74v6.26h24.182v3.692
				h-52.645V133.663z M831.203,93.849h23.434c-1-1.925-2.123-3.834-3.371-5.727l3.799-1.818c1.32,1.963,2.603,4.05,3.853,6.261
				l-2.647,1.284h23.833v9.686h-4.278v-5.993h-40.342v5.993h-4.279V93.849z"/>
			<path fill="#FFE200" d="M882.303,137.736h-53.406v-4.452h24.129v-5.501h-19.207v-4.453h19.207v-5.404
				c-3.586,0.153-7.123,0.319-10.514,0.491c-1.752,0.105-3.533,0.336-5.297,0.688l-0.305,0.063l-2.084-5.088l0.357-0.142
				c1.324-0.523,2.762-1.286,4.265-2.266c2.168-1.492,4.211-3.019,6.08-4.545h-9.035v-4.454h38.533v4.454h-9.263l0.023,0.015
				c4.477,3.52,8.428,6.876,11.74,9.977l0.296,0.275l-4.051,3.801l-0.257-0.276c-1.088-1.153-2.259-2.353-3.49-3.568
				c-4.051,0.102-8.054,0.23-11.906,0.381v5.597h19.26v4.453h-19.26v5.501h24.184V137.736z M829.655,136.975h51.887v-2.931h-24.183
				v-7.022h19.26v-2.932h-19.26v-7.087l0.363-0.015c4.021-0.161,8.209-0.295,12.447-0.401l0.16-0.005l0.117,0.114
				c1.178,1.165,2.308,2.315,3.361,3.426l2.902-2.727c-3.172-2.949-6.918-6.127-11.143-9.457l-2.387,2.17
				c1.146,0.985,2.242,1.955,3.268,2.884l0.688,0.625l-0.928,0.036c-7.522,0.297-15.318,0.585-23.17,0.856l-1.277,0.045l1.046-0.734
				c3.69-2.592,6.996-5.072,9.823-7.37l0.105-0.085h21.529v-2.932h-37.012v2.932h10.376l-0.802,0.671
				c-2.102,1.765-4.443,3.537-6.957,5.267c-1.422,0.926-2.781,1.664-4.053,2.197l1.557,3.799c1.697-0.324,3.408-0.541,5.094-0.642
				c3.521-0.179,7.195-0.35,10.922-0.508l0.396-0.017v6.958h-19.209v2.932h19.209v7.022h-24.132V136.975z M853.005,107.126
				c-2.546,2.065-5.477,4.276-8.72,6.581c7.098-0.248,14.135-0.508,20.958-0.776c-0.914-0.82-1.882-1.667-2.882-2.525l-0.328-0.28
				l3.301-2.999H853.005z M880.484,103.916h-5.042v-5.994h-39.579v5.994h-5.041V93.469h23.186c-0.916-1.721-1.943-3.447-3.059-5.137
				l-0.24-0.363l4.488-2.149l0.183,0.272c1.319,1.964,2.621,4.078,3.867,6.286l0.2,0.354l-1.525,0.738h22.563V103.916z
				 M876.203,103.155h3.521v-8.925H856.27l-0.166-0.722l2.281-1.107c-1.115-1.962-2.277-3.847-3.453-5.612l-3.109,1.49
				c1.156,1.778,2.216,3.591,3.151,5.396l0.288,0.555h-23.679v8.925h3.521v-5.994h41.1V103.155z"/>
		</g>
	</g>
</g>
</svg>
